<?xml version="1.0" encoding="UTF-8"?>
<svg xmlns="http://www.w3.org/2000/svg" version="1.1" viewBox="0 0 7231.3 642">
  <defs>
    <style>
      .cls-1 {
        stroke: #fff;
      }

      .cls-1, .cls-2 {
        fill: none;
        stroke-miterlimit: 10;
        stroke-width: 5px;
      }

      .cls-2 {
        stroke: #85d64a;
      }
    </style>
  </defs>
  <!-- Generator: Adobe Illustrator 28.6.0, SVG Export Plug-In . SVG Version: 1.2.0 Build 709)  -->
  <g>
    <g id="Layer_1">
      <g>
        <polygon class="cls-2" points="150 329.5 60.2 266.7 150 203.8 150 131.5 8.5 230.5 1 235.8 1 297.6 8.5 302.8 150 401.8 150 329.5"/>
        <polygon class="cls-2" points="358.4 199.9 268.5 137 358.4 74.2 358.4 1.9 216.9 100.9 209.4 106.2 209.4 167.9 216.9 173.2 358.4 272.2 358.4 199.9"/>
        <polygon class="cls-2" points="566.5 329.5 476.6 266.7 566.5 203.8 566.5 131.5 425 230.5 417.5 235.8 417.5 297.6 425 302.8 566.5 401.8 566.5 329.5"/>
        <polygon class="cls-2" points="774.9 199.9 685 137 774.9 74.2 774.9 1.9 633.4 100.9 625.8 106.2 625.8 167.9 633.4 173.2 774.9 272.2 774.9 199.9"/>
        <polygon class="cls-2" points="983 329.5 893.1 266.7 983 203.8 983 131.5 841.5 230.5 833.9 235.8 833.9 297.6 841.5 302.8 983 401.8 983 329.5"/>
        <polygon class="cls-2" points="1191.4 199.9 1101.5 137 1191.4 74.2 1191.4 1.9 1049.8 100.9 1042.3 106.2 1042.3 167.9 1049.9 173.2 1191.4 272.2 1191.4 199.9"/>
        <polygon class="cls-2" points="1399.5 329.5 1309.6 266.7 1399.5 203.8 1399.5 131.5 1258 230.5 1250.4 235.8 1250.4 297.6 1258 302.8 1399.5 401.8 1399.5 329.5"/>
        <polygon class="cls-2" points="1607.8 199.9 1518 137 1607.8 74.2 1607.8 1.9 1466.3 100.9 1458.8 106.2 1458.8 167.9 1466.4 173.2 1607.8 272.2 1607.8 199.9"/>
        <polygon class="cls-2" points="1815.9 329.5 1726.1 266.7 1815.9 203.8 1815.9 131.5 1674.4 230.5 1666.9 235.8 1666.9 297.6 1674.5 302.8 1815.9 401.8 1815.9 329.5"/>
        <polygon class="cls-2" points="2024.3 199.9 1934.5 137 2024.3 74.2 2024.3 1.9 1882.8 100.9 1875.3 106.2 1875.3 167.9 1882.8 173.2 2024.3 272.2 2024.3 199.9"/>
        <polygon class="cls-2" points="2232.4 329.5 2142.6 266.7 2232.4 203.8 2232.4 131.5 2090.9 230.5 2083.4 235.8 2083.4 297.6 2090.9 302.8 2232.4 401.8 2232.4 329.5"/>
        <polygon class="cls-2" points="2440.8 199.9 2351 137 2440.8 74.2 2440.8 1.9 2299.3 100.9 2291.8 106.2 2291.8 167.9 2299.3 173.2 2440.8 272.2 2440.8 199.9"/>
        <polygon class="cls-2" points="2648.9 329.5 2559.1 266.7 2648.9 203.8 2648.9 131.5 2507.4 230.5 2499.9 235.8 2499.9 297.6 2507.4 302.8 2648.9 401.8 2648.9 329.5"/>
        <polygon class="cls-2" points="2857.3 199.9 2767.5 137 2857.3 74.2 2857.3 1.9 2715.8 100.9 2708.3 106.2 2708.3 167.9 2715.8 173.2 2857.3 272.2 2857.3 199.9"/>
        <polygon class="cls-2" points="3065.4 329.5 2975.6 266.7 3065.4 203.8 3065.4 131.5 2923.9 230.5 2916.4 235.8 2916.4 297.6 2923.9 302.8 3065.4 401.8 3065.4 329.5"/>
        <polygon class="cls-2" points="3273.8 199.9 3184 137 3273.8 74.2 3273.8 1.9 3132.3 100.9 3124.8 106.2 3124.8 167.9 3132.3 173.2 3273.8 272.2 3273.8 199.9"/>
        <polygon class="cls-2" points="3481.9 329.5 3392.1 266.7 3481.9 203.8 3481.9 131.5 3340.4 230.5 3332.9 235.8 3332.9 297.6 3340.4 302.8 3481.9 401.8 3481.9 329.5"/>
        <polygon class="cls-2" points="3690.3 199.9 3600.5 137 3690.3 74.2 3690.3 1.9 3548.8 100.9 3541.3 106.2 3541.3 167.9 3548.8 173.2 3690.3 272.2 3690.3 199.9"/>
        <polygon class="cls-2" points="3898.4 329.5 3808.6 266.7 3898.4 203.8 3898.4 131.5 3756.9 230.5 3749.4 235.8 3749.4 297.6 3756.9 302.8 3898.4 401.8 3898.4 329.5"/>
        <polygon class="cls-2" points="4106.8 199.9 4017 137 4106.8 74.2 4106.8 1.9 3965.3 100.9 3957.8 106.2 3957.8 167.9 3965.3 173.2 4106.8 272.2 4106.8 199.9"/>
        <polygon class="cls-2" points="4314.9 329.5 4225.1 266.7 4314.9 203.8 4314.9 131.5 4173.4 230.5 4165.9 235.8 4165.9 297.6 4173.4 302.8 4314.9 401.8 4314.9 329.5"/>
        <polygon class="cls-2" points="4523.3 199.9 4433.5 137 4523.3 74.2 4523.3 1.9 4381.8 100.9 4374.3 106.2 4374.3 167.9 4381.8 173.2 4523.3 272.2 4523.3 199.9"/>
        <polygon class="cls-2" points="4731.4 329.5 4641.6 266.7 4731.4 203.8 4731.4 131.5 4589.9 230.5 4582.4 235.8 4582.4 297.6 4589.9 302.8 4731.4 401.8 4731.4 329.5"/>
        <polygon class="cls-2" points="4939.8 199.9 4850 137 4939.8 74.2 4939.8 1.9 4798.3 100.9 4790.8 106.2 4790.8 167.9 4798.3 173.2 4939.8 272.2 4939.8 199.9"/>
        <polygon class="cls-2" points="5147.9 329.5 5058.1 266.7 5147.9 203.8 5147.9 131.5 5006.4 230.5 4998.9 235.8 4998.9 297.6 5006.4 302.8 5147.9 401.8 5147.9 329.5"/>
        <polygon class="cls-2" points="5356.3 199.9 5266.4 137 5356.3 74.2 5356.3 1.9 5214.8 100.9 5207.3 106.2 5207.3 167.9 5214.8 173.2 5356.3 272.2 5356.3 199.9"/>
        <polygon class="cls-2" points="5564.4 329.5 5474.5 266.7 5564.4 203.8 5564.4 131.5 5422.9 230.5 5415.4 235.8 5415.4 297.6 5422.9 302.8 5564.4 401.8 5564.4 329.5"/>
        <polygon class="cls-2" points="5772.8 199.9 5682.9 137 5772.8 74.2 5772.8 1.9 5631.3 100.9 5623.7 106.2 5623.7 167.9 5631.3 173.2 5772.8 272.2 5772.8 199.9"/>
        <polygon class="cls-2" points="5980.9 329.5 5891 266.7 5980.9 203.8 5980.9 131.5 5839.4 230.5 5831.8 235.8 5831.8 297.6 5839.4 302.8 5980.9 401.8 5980.9 329.5"/>
        <polygon class="cls-2" points="6189.3 199.9 6099.4 137 6189.3 74.2 6189.3 1.9 6047.8 100.9 6040.2 106.2 6040.2 167.9 6047.8 173.2 6189.3 272.2 6189.3 199.9"/>
        <polygon class="cls-2" points="6397.4 329.5 6307.5 266.7 6397.4 203.8 6397.4 131.5 6255.9 230.5 6248.3 235.8 6248.3 297.6 6255.9 302.8 6397.4 401.8 6397.4 329.5"/>
        <polygon class="cls-2" points="6605.8 199.9 6515.9 137 6605.8 74.2 6605.8 1.9 6464.2 100.9 6456.7 106.2 6456.7 167.9 6464.3 173.2 6605.8 272.2 6605.8 199.9"/>
        <polygon class="cls-2" points="6813.9 329.5 6724 266.7 6813.9 203.8 6813.9 131.5 6672.3 230.5 6664.8 235.8 6664.8 297.6 6672.4 302.8 6813.9 401.8 6813.9 329.5"/>
        <polygon class="cls-2" points="7022.2 199.9 6932.4 137 7022.2 74.2 7022.2 1.9 6880.7 100.9 6873.2 106.2 6873.2 167.9 6880.7 173.2 7022.2 272.2 7022.2 199.9"/>
        <polygon class="cls-2" points="7230.3 329.5 7140.5 266.7 7230.3 203.8 7230.3 131.5 7088.8 230.5 7081.3 235.8 7081.3 297.6 7088.8 302.8 7230.3 401.8 7230.3 329.5"/>
        <path class="cls-1" d="M150,474.1v61.8L1,640.1v-71.2l89.1-63.7L1,441.1v-71.2l149,104.2Z"/>
        <path class="cls-1" d="M358.4,344.5v61.8l-149,104.2v-71.2l89.1-63.7-89.1-64.1v-71.2l149,104.2h0Z"/>
        <path class="cls-1" d="M566.5,474.1v61.8l-149,104.2v-71.2l89.1-63.7-89.1-64.1v-71.2l149,104.2h0Z"/>
        <path class="cls-1" d="M774.9,344.5v61.8l-149,104.2v-71.2l89.1-63.7-89.1-64.1v-71.2l149,104.2h0Z"/>
        <path class="cls-1" d="M983,474.1v61.8l-149,104.2v-71.2l89.1-63.7-89.1-64.1v-71.2l149,104.2h0Z"/>
        <path class="cls-1" d="M1191.4,344.5v61.8l-149,104.2v-71.2l89.1-63.7-89.1-64.1v-71.2l149,104.2h0Z"/>
        <path class="cls-1" d="M1399.5,474.1v61.8l-149,104.2v-71.2l89.1-63.7-89.1-64.1v-71.2l149,104.2h0Z"/>
        <path class="cls-1" d="M1607.8,344.5v61.8l-149,104.2v-71.2l89.1-63.7-89.1-64.1v-71.2l149,104.2h0Z"/>
        <path class="cls-1" d="M1815.9,474.1v61.8l-149,104.2v-71.2l89.1-63.7-89.1-64.1v-71.2l149,104.2h0Z"/>
        <path class="cls-1" d="M2024.3,344.5v61.8l-149,104.2v-71.2l89.1-63.7-89.1-64.1v-71.2l149,104.2h0Z"/>
        <path class="cls-1" d="M2232.4,474.1v61.8l-149,104.2v-71.2l89.1-63.7-89.1-64.1v-71.2l149,104.2h0Z"/>
        <path class="cls-1" d="M2440.8,344.5v61.8l-149,104.2v-71.2l89.1-63.7-89.1-64.1v-71.2l149,104.2h0Z"/>
        <path class="cls-1" d="M2648.9,474.1v61.8l-149,104.2v-71.2l89.1-63.7-89.1-64.1v-71.2l149,104.2h0Z"/>
        <path class="cls-1" d="M2857.3,344.5v61.8l-149,104.2v-71.2l89.1-63.7-89.1-64.1v-71.2l149,104.2h0Z"/>
        <path class="cls-1" d="M3065.4,474.1v61.8l-149,104.2v-71.2l89.1-63.7-89.1-64.1v-71.2l149,104.2h0Z"/>
        <path class="cls-1" d="M3273.8,344.5v61.8l-149,104.2v-71.2l89.1-63.7-89.1-64.1v-71.2l149,104.2h0Z"/>
        <path class="cls-1" d="M3481.9,474.1v61.8l-149,104.2v-71.2l89.1-63.7-89.1-64.1v-71.2l149,104.2h0Z"/>
        <path class="cls-1" d="M3690.3,344.5v61.8l-149,104.2v-71.2l89.1-63.7-89.1-64.1v-71.2l149,104.2h0Z"/>
        <path class="cls-1" d="M3898.4,474.1v61.8l-149,104.2v-71.2l89.1-63.7-89.1-64.1v-71.2l149,104.2h0Z"/>
        <path class="cls-1" d="M4106.8,344.5v61.8l-149,104.2v-71.2l89.1-63.7-89.1-64.1v-71.2l149,104.2h0Z"/>
        <path class="cls-1" d="M4314.9,474.1v61.8l-149,104.2v-71.2l89.1-63.7-89.1-64.1v-71.2l149,104.2h0Z"/>
        <path class="cls-1" d="M4523.3,344.5v61.8l-149,104.2v-71.2l89.1-63.7-89.1-64.1v-71.2l149,104.2h0Z"/>
        <path class="cls-1" d="M4731.4,474.1v61.8l-149,104.2v-71.2l89.1-63.7-89.1-64.1v-71.2l149,104.2h0Z"/>
        <path class="cls-1" d="M4939.8,344.5v61.8l-149,104.2v-71.2l89.1-63.7-89.1-64.1v-71.2l149,104.2h0Z"/>
        <path class="cls-1" d="M5147.9,474.1v61.8l-149,104.2v-71.2l89.1-63.7-89.1-64.1v-71.2l149,104.2h0Z"/>
        <path class="cls-1" d="M5356.3,344.5v61.8l-149,104.2v-71.2l89.1-63.7-89.1-64.1v-71.2l149,104.2h0Z"/>
        <path class="cls-1" d="M5564.4,474.1v61.8l-149,104.2v-71.2l89.1-63.7-89.1-64.1v-71.2l149,104.2h0Z"/>
        <path class="cls-1" d="M5772.8,344.5v61.8l-149,104.2v-71.2l89.1-63.7-89.1-64.1v-71.2l149,104.2h0Z"/>
        <path class="cls-1" d="M5980.9,474.1v61.8l-149,104.2v-71.2l89.1-63.7-89.1-64.1v-71.2l149,104.2h0Z"/>
        <path class="cls-1" d="M6189.3,344.5v61.8l-149,104.2v-71.2l89.1-63.7-89.1-64.1v-71.2l149,104.2h0Z"/>
        <path class="cls-1" d="M6397.4,474.1v61.8l-149,104.2v-71.2l89.1-63.7-89.1-64.1v-71.2l149,104.2h0Z"/>
        <path class="cls-1" d="M6605.8,344.5v61.8l-149,104.2v-71.2l89.1-63.7-89.1-64.1v-71.2l149,104.2h0Z"/>
        <path class="cls-1" d="M6813.9,474.1v61.8l-149,104.2v-71.2l89.1-63.7-89.1-64.1v-71.2l149,104.2h0Z"/>
        <path class="cls-1" d="M7022.2,344.5v61.8l-149,104.2v-71.2l89.1-63.7-89.1-64.1v-71.2l149,104.2h0Z"/>
        <path class="cls-1" d="M7230.3,474.1v61.8l-149,104.2v-71.2l89.1-63.7-89.1-64.1v-71.2l149,104.2h0Z"/>
      </g>
    </g>
  </g>
</svg>